<?xml version="1.0" encoding="utf-8"?>
<!-- Generator: Adobe Illustrator 15.0.0, SVG Export Plug-In . SVG Version: 6.00 Build 0)  -->
<!DOCTYPE svg PUBLIC "-//W3C//DTD SVG 1.1//EN" "http://www.w3.org/Graphics/SVG/1.1/DTD/svg11.dtd">
<svg version="1.1" id="图层_1" xmlns="http://www.w3.org/2000/svg" xmlns:xlink="http://www.w3.org/1999/xlink" x="0px" y="0px"
	 width="50px" height="50px" viewBox="0 0 50 50" enable-background="new 0 0 50 50" xml:space="preserve">
<rect fill="#F4F4F4" width="50" height="50"/>
<ellipse fill="none" stroke="#A70005" stroke-width="2" stroke-miterlimit="10" cx="25.027" cy="25.111" rx="23.742" ry="23.887"/>
<path fill="#A70005" d="M14.62,30.232c-3.267,0-4.397,1.256-4.397,3.141s1.131,3.142,4.397,3.142s4.397-1.257,4.397-3.142
	S17.886,30.232,14.62,30.232"/>
<path fill="#A70005" d="M38.491,13.899h-2.513c-0.377,0-0.628,0.251-0.628,0.628v3.141h-1.256v-4.398
	c0-0.376-0.252-0.628-0.629-0.628h-2.514c-0.376,0-0.628,0.251-0.628,0.628v3.142h-1.256v-3.142c0-0.376-0.252-0.628-0.629-0.628
	h-2.512c-0.377,0-0.628,0.251-0.628,0.628v3.142h-1.257v-1.885c0-0.377-0.25-0.628-0.628-0.628h-2.512
	c-0.377,0-0.628,0.251-0.628,0.628v3.141h-1.256v-2.513c0-1.885-1.131-3.141-4.397-3.141s-4.397,1.256-4.397,3.141v15.077
	c1.005-0.88,2.387-1.256,4.397-1.256s3.393,0.376,4.397,1.256v-1.256h1.256v3.141c0,0.376,0.251,0.628,0.628,0.628h2.512
	c0.377,0,0.628-0.252,0.628-0.628V27.72h1.257v3.141c0,0.378,0.251,0.629,0.628,0.629h2.512c0.377,0,0.629-0.251,0.629-0.629V27.72
	h1.256v3.141c0,0.378,0.252,0.629,0.628,0.629h2.514c0.377,0,0.629-0.251,0.629-0.629v-1.884h1.256v3.141
	c0,0.376,0.251,0.628,0.628,0.628h2.513c0.377,0,0.629-0.252,0.629-0.628v-17.59C39.12,14.15,38.868,13.899,38.491,13.899
	 M20.273,27.72h-1.256v-8.795h1.256V27.72z M25.299,26.463h-1.257v-8.794h1.257V26.463z M30.324,26.463h-1.256v-8.794h1.256V26.463z
	 M35.351,27.72h-1.256v-8.795h1.256V27.72z"/>
</svg>
