<?xml version="1.0" encoding="utf-8"?>
<!-- Generator: Adobe Illustrator 15.0.0, SVG Export Plug-In . SVG Version: 6.00 Build 0)  -->
<!DOCTYPE svg PUBLIC "-//W3C//DTD SVG 1.1//EN" "http://www.w3.org/Graphics/SVG/1.1/DTD/svg11.dtd">
<svg version="1.1" id="图层_1" xmlns="http://www.w3.org/2000/svg" xmlns:xlink="http://www.w3.org/1999/xlink" x="0px" y="0px"
	 width="50px" height="50px" viewBox="0 0 50 50" enable-background="new 0 0 50 50" xml:space="preserve">
<rect fill="#F4F4F4" width="50" height="50"/>
<ellipse transform="matrix(1 -0.0017 0.0017 1 -0.0418 0.042)" fill="none" stroke="#A70005" stroke-width="2" stroke-miterlimit="10" cx="25.069" cy="24.977" rx="23.783" ry="23.749"/>
<path fill="#A70005" d="M36.932,26.954h-2.849v-6.616c0-2.117-1.732-3.849-3.85-3.849h-4.768v-3.625l4.882-3.244l-6.129-3.926
	v10.794h-5.436c-2.117,0-3.849,1.732-3.849,3.849v6.616H12.41c-2.117,0-3.85,1.731-3.85,3.849v7.548h12.156v-8.817
	c0-2.116,1.732-3.849,3.85-3.849h0.393c2.117,0,3.849,1.732,3.849,3.849v8.817h11.974v-7.548
	C40.781,28.686,39.049,26.954,36.932,26.954"/>
</svg>
