<?xml version="1.0" encoding="utf-8"?>
<!-- Generator: Adobe Illustrator 15.0.0, SVG Export Plug-In . SVG Version: 6.00 Build 0)  -->
<!DOCTYPE svg PUBLIC "-//W3C//DTD SVG 1.1//EN" "http://www.w3.org/Graphics/SVG/1.1/DTD/svg11.dtd">
<svg version="1.1" id="图层_1" xmlns="http://www.w3.org/2000/svg" xmlns:xlink="http://www.w3.org/1999/xlink" x="0px" y="0px"
	 width="50px" height="50px" viewBox="0 0 50 50" enable-background="new 0 0 50 50" xml:space="preserve">
<rect fill="#F4F4F4" width="50" height="50"/>
<ellipse fill="none" stroke="#A70005" stroke-width="2" stroke-miterlimit="10" cx="25.027" cy="25.111" rx="23.742" ry="23.887"/>
<path fill="#A70005" d="M38.529,13.418H10.813c-0.486,0-0.869,0.397-0.869,0.883v4.212c0,0.486,0.383,0.884,0.869,0.884h27.717
	c0.485,0,0.868-0.398,0.868-0.884v-4.212C39.383,13.815,39,13.418,38.529,13.418 M37.381,17.645h-6.038v-2.43h6.038V17.645z
	 M38.529,21.959H10.813c-0.486,0-0.869,0.398-0.869,0.884v4.212c0,0.485,0.383,0.883,0.869,0.883h27.717
	c0.485,0,0.868-0.397,0.868-0.883v-4.212C39.383,22.357,39,21.959,38.529,21.959 M37.381,26.157H19.619v-2.43h17.762V26.157z
	 M38.529,30.428H10.813c-0.486,0-0.869,0.397-0.869,0.884v4.197c0,0.486,0.383,0.884,0.869,0.884h27.717
	c0.485,0,0.868-0.397,0.868-0.884v-4.213C39.383,30.825,39,30.428,38.529,30.428 M37.381,34.625h-9.013v-2.43h9.013V34.625z"/>
</svg>
